<svg aria-hidden="true" style="position: absolute; width: 0; height: 0; overflow: hidden;" version="1.1" xmlns="http://www.w3.org/2000/svg" xmlns:xlink="http://www.w3.org/1999/xlink">
<defs>
<symbol id="logo" viewBox="0 0 87 32">
<path fill="#262424" style="fill: var(--color1, #262424)" d="M43.696 11.341v2.245h-5.669v6.722h6.813v-13.461h2.271v13.461l-2.271 2.247h-6.813l-2.272-2.247v-6.722l2.272-2.245h5.669z"></path>
<path fill="#262424" style="fill: var(--color1, #262424)" d="M58.173 11.341l2.272 2.245v2.245l-2.272 2.247h-5.733v-2.247h5.733v-2.245h-6.81v6.722h7.94v2.247h-7.94l-2.272-2.247v-6.722l2.272-2.245h6.81z"></path>
<path fill="#262424" style="fill: var(--color1, #262424)" d="M71.509 11.341l2.271 2.245v6.722l-2.271 2.247h-5.669v-2.247h5.669v-6.722h-6.812v13.444h-2.273v-13.444l2.273-2.245h6.812z"></path>
<path fill="#262424" style="fill: var(--color1, #262424)" d="M87.114 13.585h-9.083v2.245h6.813l2.271 2.247v2.23l-2.271 2.247h-9.085v-2.247h9.085v-2.23h-6.813l-2.273-2.247v-2.245l2.273-2.245h9.083v2.245z"></path>
<path fill="#02aa4e" style="fill: var(--color2, #02aa4e)" d="M31.853 15.092c0.034-2.537-1.368-5.623-1.368-5.623s-0.359-0.896-0.812-1.37c-0.453-0.473-1.42-0.999-1.42-0.999s0.11-0.205 0.11-0.645c0-0.44-0.483-0.933-0.605-1.059s-1.906-2.075-4.104-3.199c-2.197-1.125-4.42-1.911-7.626-1.911h-0.014c-3.206 0-5.429 0.786-7.626 1.911s-3.981 3.074-4.103 3.199c-0.123 0.126-0.605 0.62-0.605 1.059s0.11 0.645 0.11 0.645c0 0-0.967 0.525-1.42 0.999s-0.812 1.37-0.812 1.37c0 0-1.403 3.086-1.368 5.623 0 0-0.037 0.476 0.776 1.295 0 0-0.768 0.745-0.68 1.71 0 0 0.148 1.52 0.768 3.157s1.197 2.616 1.537 3.098 1.522 1.257 2.128 1.461c0-0.014-0.428 0.892 0.148 1.622 0 0 4.019 4.37 11.142 4.487h0.028c7.122-0.117 11.142-4.487 11.142-4.487 0.576-0.731 0.148-1.636 0.148-1.622 0.606-0.205 1.788-0.979 2.128-1.461s0.916-1.462 1.537-3.098c0.62-1.637 0.768-3.157 0.768-3.157 0.089-0.965-0.68-1.71-0.68-1.71 0.813-0.818 0.776-1.295 0.776-1.295zM2.605 8.489c0.468-0.549 1.403-0.997 1.403-0.997s1.094 1.571 5.913 2.374c3.725 0.575 6.084 0.499 6.084 0.499h0.012c0 0 2.358 0.076 6.084-0.499 4.819-0.803 5.913-2.374 5.913-2.374s0.936 0.447 1.404 0.997c0.468 0.549 0.698 1.342 0.698 1.342s-0.64 1.98-5.425 2.944c-4.785 0.964-8.664 0.896-8.664 0.896h-0.030c0 0-3.879 0.068-8.664-0.896s-5.425-2.944-5.425-2.944 0.23-0.793 0.698-1.342zM26.844 27.099c-0.439 0.543-1.298 1.212-1.582 1.356s-1.856 0.868-5.038 1.239c-2.423 0.326-4.212 0.235-4.212 0.235s-1.792 0.090-4.215-0.235c-3.182-0.371-4.755-1.094-5.038-1.239s-1.143-0.814-1.582-1.356c-0.439-0.543-0.009-1.103-0.009-1.103s2.030 0.868 5.349 1.284c3.319 0.416 5.486 0.335 5.486 0.335h0.015c0 0 2.167 0.081 5.486-0.335s5.349-1.284 5.349-1.284 0.43 0.561-0.009 1.103zM31.291 17.66c0.059 0.514-0.174 1.349-0.174 1.349s-0.040 0.241-0.254 0.416c-0.214 0.175-2.448 2.114-8.481 2.812 0 0-2.997 0.431-6.366 0.406h-0.026c-3.369 0.025-6.366-0.406-6.366-0.406-6.033-0.698-8.267-2.636-8.481-2.812s-0.254-0.416-0.254-0.416c0 0-0.232-0.835-0.173-1.349s0.6-0.985 0.6-0.985 1.007 0.831 3.633 1.643c2.626 0.812 7.519 1.459 11.041 1.382h0.026c3.523 0.076 8.416-0.571 11.042-1.382s3.633-1.643 3.633-1.643 0.542 0.471 0.601 0.985z"></path>
</symbol>
<symbol id="border" viewBox="0 0 32 32">
<path fill="#f5f6fa" style="fill: var(--color1, #f5f6fa)" d="M28.431 9.684h-15.315v5.334h15.315c0.707 0 1.386-0.281 1.886-0.781s0.781-1.178 0.781-1.886-0.281-1.386-0.781-1.886c-0.5-0.5-1.178-0.781-1.886-0.781z"></path>
<path fill="#d1d5da" style="fill: var(--color2, #d1d5da)" d="M8.946 4.981c-1.254 0-2.456 0.498-3.343 1.385s-1.385 2.089-1.385 3.343v14.025h9.455v-14.025c-0-1.254-0.498-2.456-1.385-3.343s-2.089-1.385-3.343-1.385z"></path>
<path fill="#777a90" style="fill: var(--color3, #777a90)" d="M14.692 23.019h-11.492c-0.424 0-0.831 0.169-1.131 0.469s-0.469 0.707-0.469 1.131v2.4h14.692v-2.4c0-0.424-0.169-0.831-0.469-1.131s-0.707-0.469-1.131-0.469z"></path>
<path fill="#009a44" style="fill: var(--color4, #009a44)" d="M14.539 15.017h4.179l1.605-5.334h-4.179l-1.605 5.334z"></path>
<path fill="#009a44" style="fill: var(--color4, #009a44)" d="M21.958 15.017h4.179l1.603-5.334h-4.176l-1.605 5.334z"></path>
<path fill="#fff" style="fill: var(--color5, #fff)" d="M10.013 10.835h-2.133c-0.736 0-1.333 0.597-1.333 1.333v5.697c0 0.736 0.597 1.333 1.333 1.333h2.133c0.736 0 1.333-0.597 1.333-1.333v-5.697c0-0.736-0.597-1.333-1.333-1.333z"></path>
</symbol>
<symbol id="shield" viewBox="0 0 32 32">
<path fill="#f5f6fa" style="fill: var(--color1, #f5f6fa)" d="M16 30.25c13.54-3.808 11.371-11.308 9.712-16.192-1.782-5.244 0.615-8.89 0.615-8.89-7.602-0.475-10.327-3.418-10.327-3.418s-2.725 2.943-10.327 3.418c0 0 2.397 3.646 0.615 8.89-1.659 4.884-3.828 12.384 9.712 16.192z"></path>
<path fill="#d1d5da" style="fill: var(--color2, #d1d5da)" d="M9.121 7.283c0.55 2.521 0.389 5.145-0.466 7.58-0.908 2.671-1.692 5.473-0.469 7.795 1.089 2.068 3.716 3.744 7.814 4.988 4.1-1.244 6.725-2.921 7.814-4.988 1.222-2.322 0.439-5.125-0.469-7.795-0.855-2.434-1.017-5.059-0.466-7.58-3.277-0.569-5.496-1.575-6.879-2.42-1.383 0.844-3.602 1.851-6.879 2.42z"></path>
<path fill="#f5f6fa" style="fill: var(--color1, #f5f6fa)" d="M16 21.505c2.9 0 5.25-2.351 5.25-5.25s-2.351-5.25-5.25-5.25c-2.9 0-5.25 2.351-5.25 5.25s2.351 5.25 5.25 5.25z"></path>
<path fill="#009a44" style="fill: var(--color4, #009a44)" d="M19.274 14.849l-1.106-1.106-2.812 2.812-1.524-1.524-1.107 1.106 2.632 2.629 3.917-3.917z"></path>
</symbol>
<symbol id="cogwheel" viewBox="0 0 32 32">
<path fill="#009a44" style="fill: var(--color4, #009a44)" d="M21.75 22.080v-3.66h-2.365c-0.191-0.803-0.51-1.57-0.944-2.273l1.675-1.675-2.589-2.588-1.675 1.675c-0.702-0.434-1.469-0.753-2.272-0.945v-2.365h-3.66v2.368c-0.802 0.192-1.569 0.51-2.271 0.942l-1.675-1.675-2.589 2.588 1.675 1.675c-0.432 0.703-0.75 1.469-0.942 2.272h-2.368v3.66h2.365c0.191 0.803 0.51 1.57 0.944 2.272l-1.675 1.675 2.588 2.588 1.675-1.675c0.702 0.434 1.469 0.753 2.272 0.944v2.365h3.66v-2.368c0.802-0.192 1.569-0.51 2.272-0.942l1.675 1.675 2.588-2.588-1.675-1.675c0.432-0.703 0.75-1.469 0.942-2.272l2.368 0zM11.75 22.702c-0.485 0-0.959-0.144-1.363-0.413s-0.718-0.652-0.903-1.101c-0.186-0.448-0.234-0.941-0.14-1.417s0.328-0.913 0.671-1.256c0.343-0.343 0.78-0.577 1.256-0.671s0.969-0.046 1.417 0.14c0.448 0.186 0.831 0.5 1.101 0.903s0.413 0.878 0.413 1.363c-0 0.65-0.258 1.274-0.718 1.734s-1.084 0.718-1.734 0.718z"></path>
<path fill="#d1d5da" style="fill: var(--color2, #d1d5da)" d="M30.25 8.57v-2.11h-1.364c-0.11-0.463-0.294-0.905-0.544-1.31l0.965-0.965-1.492-1.492-0.966 0.965c-0.405-0.25-0.847-0.434-1.31-0.544v-1.363h-2.11v1.365c-0.462 0.111-0.904 0.294-1.31 0.543l-0.965-0.966-1.492 1.492 0.966 0.966c-0.249 0.405-0.432 0.847-0.543 1.309h-1.365v2.11h1.364c0.11 0.463 0.294 0.905 0.544 1.31l-0.965 0.965 1.492 1.492 0.965-0.965c0.405 0.25 0.847 0.434 1.31 0.544v1.363h2.11v-1.365c0.462-0.111 0.904-0.294 1.31-0.543l0.966 0.966 1.492-1.492-0.966-0.966c0.249-0.405 0.432-0.847 0.543-1.31h1.365zM24.485 9.967c-0.485 0-0.959-0.144-1.363-0.413s-0.718-0.652-0.903-1.101c-0.186-0.448-0.234-0.941-0.14-1.417s0.328-0.913 0.671-1.256c0.343-0.343 0.78-0.577 1.256-0.671s0.969-0.046 1.417 0.14c0.448 0.186 0.831 0.5 1.101 0.903s0.413 0.878 0.413 1.363c0 0.65-0.258 1.274-0.718 1.734s-1.084 0.718-1.734 0.718z"></path>
<path fill="#d1d5da" style="fill: var(--color2, #d1d5da)" d="M17.515 21.305v-2.11h-1.364c-0.11-0.463-0.294-0.905-0.544-1.31l0.965-0.965-1.492-1.492-0.965 0.965c-0.405-0.25-0.847-0.434-1.31-0.544v-1.363h-2.11v1.365c-0.462 0.111-0.904 0.294-1.309 0.543l-0.966-0.966-1.492 1.492 0.966 0.966c-0.249 0.405-0.433 0.847-0.543 1.31h-1.365v2.11h1.365c0.11 0.463 0.294 0.905 0.544 1.31l-0.965 0.965 1.492 1.492 0.965-0.965c0.405 0.25 0.847 0.434 1.31 0.544v1.364h2.11v-1.365c0.462-0.111 0.904-0.294 1.31-0.543l0.966 0.966 1.492-1.492-0.966-0.966c0.249-0.405 0.432-0.848 0.542-1.31h1.365zM11.75 22.702c-0.485 0-0.959-0.144-1.363-0.413s-0.718-0.652-0.903-1.101c-0.186-0.448-0.234-0.941-0.14-1.417s0.328-0.913 0.671-1.256c0.343-0.343 0.78-0.577 1.256-0.671s0.969-0.046 1.417 0.14c0.448 0.186 0.831 0.5 1.101 0.903s0.413 0.878 0.413 1.363c-0 0.65-0.258 1.274-0.718 1.734s-1.084 0.718-1.734 0.718z"></path>
</symbol>
<symbol id="question" viewBox="0 0 30 32">
<path fill="#ebfae8" style="fill: var(--color1, #ebfae8)" d="M0 0.762h30.476v30.476h-30.476v-30.476z"></path>
<path fill="none" stroke="#009a44" style="stroke: var(--color2, #009a44)" stroke-linejoin="round" stroke-linecap="round" stroke-miterlimit="4" stroke-width="3.0476" d="M10.159 10.921c0-1.010 0.468-1.979 1.302-2.694s1.964-1.116 3.143-1.116h1.27c1.179 0 2.309 0.401 3.143 1.116s1.302 1.683 1.302 2.694c0.047 0.824-0.176 1.642-0.634 2.329s-1.127 1.207-1.906 1.481c-0.779 0.365-1.448 1.058-1.906 1.974s-0.68 2.006-0.634 3.105"></path>
<path fill="none" stroke="#009a44" style="stroke: var(--color2, #009a44)" stroke-linejoin="round" stroke-linecap="round" stroke-miterlimit="4" stroke-width="3.0476" d="M15.238 24.889v0.013"></path>
</symbol>
<symbol id="chevron" viewBox="0 0 32 32">
<path fill="none" stroke="#009a44" style="stroke: var(--color1, #009a44)" stroke-linejoin="round" stroke-linecap="round" stroke-miterlimit="4" stroke-width="4.2667" d="M12 24l8-8-8-8"></path>
</symbol>
</defs>
</svg>
